<svg width="22" height="22" viewBox="0 0 26 26" fill="none" xmlns="http://www.w3.org/2000/svg">
<circle cx="13" cy="13" r="12.5" stroke="#00A0A0"/>
<path d="M9.71094 19H8.25781V9.36719L5.34375 10.4375V9.125L9.48438 7.57031H9.71094V19ZM20.8438 10.5938C20.8438 11.1615 20.6927 11.6667 20.3906 12.1094C20.0938 12.5521 19.6901 12.8984 19.1797 13.1484C19.7734 13.4036 20.2422 13.776 20.5859 14.2656C20.9349 14.7552 21.1094 15.3099 21.1094 15.9297C21.1094 16.9141 20.776 17.6979 20.1094 18.2812C19.4479 18.8646 18.5755 19.1562 17.4922 19.1562C16.3984 19.1562 15.5208 18.8646 14.8594 18.2812C14.2031 17.6927 13.875 16.9089 13.875 15.9297C13.875 15.3151 14.0417 14.7604 14.375 14.2656C14.7135 13.7708 15.1797 13.3958 15.7734 13.1406C15.2682 12.8906 14.8698 12.5443 14.5781 12.1016C14.2865 11.6589 14.1406 11.1562 14.1406 10.5938C14.1406 9.63542 14.4479 8.875 15.0625 8.3125C15.6771 7.75 16.487 7.46875 17.4922 7.46875C18.4922 7.46875 19.2995 7.75 19.9141 8.3125C20.5339 8.875 20.8438 9.63542 20.8438 10.5938ZM19.6641 15.8984C19.6641 15.263 19.4609 14.7448 19.0547 14.3438C18.6536 13.9427 18.1276 13.7422 17.4766 13.7422C16.8255 13.7422 16.3021 13.9401 15.9062 14.3359C15.5156 14.7318 15.3203 15.2526 15.3203 15.8984C15.3203 16.5443 15.5104 17.0521 15.8906 17.4219C16.276 17.7917 16.8099 17.9766 17.4922 17.9766C18.1693 17.9766 18.7005 17.7917 19.0859 17.4219C19.4714 17.0469 19.6641 16.5391 19.6641 15.8984ZM17.4922 8.65625C16.9245 8.65625 16.4635 8.83333 16.1094 9.1875C15.7604 9.53646 15.5859 10.013 15.5859 10.6172C15.5859 11.1953 15.7578 11.6641 16.1016 12.0234C16.4505 12.3776 16.9141 12.5547 17.4922 12.5547C18.0703 12.5547 18.5312 12.3776 18.875 12.0234C19.224 11.6641 19.3984 11.1953 19.3984 10.6172C19.3984 10.0391 19.2188 9.56771 18.8594 9.20312C18.5 8.83854 18.0443 8.65625 17.4922 8.65625Z" fill="#00A0A0"/>
</svg>
