<svg width="22" height="22" viewBox="0 0 26 26" fill="none" xmlns="http://www.w3.org/2000/svg">
<circle cx="13" cy="13" r="12.5" stroke="#00A0A0"/>
<path d="M12.4141 19H4.96094V17.9609L8.89844 13.5859C9.48177 12.9245 9.88281 12.388 10.1016 11.9766C10.3255 11.5599 10.4375 11.1302 10.4375 10.6875C10.4375 10.0938 10.2578 9.60677 9.89844 9.22656C9.53906 8.84635 9.0599 8.65625 8.46094 8.65625C7.74219 8.65625 7.18229 8.86198 6.78125 9.27344C6.38542 9.67969 6.1875 10.2474 6.1875 10.9766H4.74219C4.74219 9.92969 5.07812 9.08333 5.75 8.4375C6.42708 7.79167 7.33073 7.46875 8.46094 7.46875C9.51823 7.46875 10.3542 7.7474 10.9688 8.30469C11.5833 8.85677 11.8906 9.59375 11.8906 10.5156C11.8906 11.6354 11.1771 12.9688 9.75 14.5156L6.70312 17.8203H12.4141V19ZM21.2891 8.4375L16.5781 19H15.0625L19.7578 8.8125H13.6016V7.625H21.2891V8.4375Z" fill="#00A0A0"/>
</svg>
