<svg width="22" height="22" viewBox="0 0 26 26" fill="none" xmlns="http://www.w3.org/2000/svg">
<circle cx="13" cy="13" r="12.5" stroke="#00A0A0"/>
<path d="M15.4922 14C15.1901 14.3594 14.8281 14.6484 14.4062 14.8672C13.9896 15.0859 13.5312 15.1953 13.0312 15.1953C12.375 15.1953 11.8021 15.0339 11.3125 14.7109C10.8281 14.388 10.4531 13.9349 10.1875 13.3516C9.92188 12.763 9.78906 12.1146 9.78906 11.4062C9.78906 10.6458 9.93229 9.96094 10.2188 9.35156C10.5104 8.74219 10.9219 8.27604 11.4531 7.95312C11.9844 7.63021 12.6042 7.46875 13.3125 7.46875C14.4375 7.46875 15.3229 7.89062 15.9688 8.73438C16.6198 9.57292 16.9453 10.7188 16.9453 12.1719V12.5938C16.9453 14.8073 16.5078 16.4245 15.6328 17.4453C14.7578 18.4609 13.4375 18.9818 11.6719 19.0078H11.3906V17.7891H11.6953C12.888 17.7682 13.8047 17.4583 14.4453 16.8594C15.0859 16.2552 15.4349 15.3021 15.4922 14ZM13.2656 14C13.75 14 14.1953 13.8516 14.6016 13.5547C15.013 13.2578 15.3125 12.8906 15.5 12.4531V11.875C15.5 10.9271 15.2943 10.1562 14.8828 9.5625C14.4714 8.96875 13.9505 8.67188 13.3203 8.67188C12.6849 8.67188 12.1745 8.91667 11.7891 9.40625C11.4036 9.89062 11.2109 10.5312 11.2109 11.3281C11.2109 12.1042 11.3958 12.7448 11.7656 13.25C12.1406 13.75 12.6406 14 13.2656 14Z" fill="#00A0A0"/>
</svg>
