<svg width="18" height="18" viewBox="0 0 18 18" fill="none" xmlns="http://www.w3.org/2000/svg">
    <path d="M16.6326 15.9487H1.3675C1.04657 15.9487 0.79541 16.2138 0.79541 16.5208C0.79541 16.8278 1.06053 17.0929 1.3675 17.0929H16.6466C16.9675 17.0929 17.2187 16.8278 17.2187 16.5208C17.2187 16.2138 16.9535 15.9487 16.6326 15.9487Z" fill="#979797"/>
    <path d="M0.795448 10.8838L0.781494 13.6047C0.781494 13.7582 0.837308 13.9117 0.948936 14.0234C1.06056 14.135 1.2001 14.1908 1.35359 14.1908L4.06056 14.1768C4.21405 14.1768 4.35359 14.121 4.46522 14.0094L13.8141 4.66057C14.0373 4.43731 14.0373 4.07452 13.8141 3.83731L11.135 1.13033C10.9117 0.907077 10.5489 0.907077 10.3117 1.13033L8.44196 3.01405L0.96289 10.4792C0.865215 10.5908 0.795448 10.7303 0.795448 10.8838ZM10.7303 2.35824L12.6141 4.24196L11.5536 5.30243L9.66987 3.4187L10.7303 2.35824ZM1.95359 11.135L8.84661 4.24196L10.7303 6.12568L3.83731 13.0047L1.93963 13.0187L1.95359 11.135Z" fill="#979797"/>
</svg>
