<svg width="20" height="20" viewBox="0 0 20 20" fill="none" xmlns="http://www.w3.org/2000/svg">
<path d="M4.66675 13.6665C3.56374 13.6665 2.66675 14.5635 2.66675 15.6665C2.66675 16.7695 3.56374 17.6665 4.66675 17.6665C5.76976 17.6665 6.66675 16.7695 6.66675 15.6665C6.66675 14.5635 5.76972 13.6665 4.66675 13.6665ZM4.66675 16.9998C3.9314 16.9998 3.33343 16.4018 3.33343 15.6665C3.33343 14.9312 3.93144 14.3332 4.66675 14.3332C5.40206 14.3332 6.00007 14.9312 6.00007 15.6665C6.00007 16.4018 5.40206 16.9998 4.66675 16.9998Z" fill="black"/>
<path d="M15.3334 13.6665C14.2304 13.6665 13.3334 14.5635 13.3334 15.6665C13.3334 16.7695 14.2304 17.6665 15.3334 17.6665C16.4364 17.6665 17.3334 16.7695 17.3334 15.6665C17.3334 14.5635 16.4364 13.6665 15.3334 13.6665ZM15.3334 16.9998C14.598 16.9998 14.0001 16.4018 14.0001 15.6665C14.0001 14.9312 14.5981 14.3332 15.3334 14.3332C16.0687 14.3332 16.6667 14.9312 16.6667 15.6665C16.6667 16.4018 16.0687 16.9998 15.3334 16.9998Z" fill="black"/>
<path d="M19.9743 13.538L18.3077 9.53797C18.256 9.41398 18.1346 9.33297 18 9.33297H16.6667V5.33297H17.3334C17.5173 5.33297 17.6667 5.18363 17.6667 4.99965V2.66633C17.6667 2.48234 17.5173 2.33301 17.3334 2.33301H7.66668C6.56367 2.33301 5.66668 3.23 5.66668 4.33301C5.66668 4.51699 5.81602 4.66633 6 4.66633H6.43633L3.13301 10.6723C1.38801 10.7763 0 12.229 0 13.9996V15.333C0 15.3936 0.0163281 15.4506 0.0446484 15.4996C0.0163281 15.5486 0 15.6057 0 15.6663C0 15.8503 0.149336 15.9996 0.33332 15.9996H1.66664C1.85063 15.9996 1.99996 15.8503 1.99996 15.6663C1.99996 14.196 3.19629 12.9996 4.66664 12.9996C6.13699 12.9996 7.33332 14.196 7.33332 15.6663C7.33332 15.8503 7.48266 15.9996 7.66664 15.9996H12.3333C12.5173 15.9996 12.6666 15.8503 12.6666 15.6663C12.6666 14.196 13.863 12.9996 15.3333 12.9996C16.8037 12.9996 18 14.196 18 15.6663C18 15.8503 18.1493 15.9996 18.3333 15.9996H19.6666C19.8506 15.9996 20 15.8503 20 15.6663V13.6663C20 13.6223 19.9913 13.5786 19.9743 13.538ZM15 9.66633C15 9.78133 14.9407 9.88801 14.8433 9.94898L12.2727 11.5557L11.3123 14.1167C11.2633 14.2467 11.139 14.333 11 14.333H8.99996C8.87895 14.333 8.7673 14.2673 8.70863 14.1617L7.37562 11.762L8.33328 10.8044L8.7643 11.2354C8.8293 11.3004 8.91465 11.333 8.99996 11.333C9.08531 11.333 9.17063 11.3004 9.23563 11.2354C9.36598 11.105 9.36598 10.8944 9.23563 10.7641L7.90234 9.43066C7.77199 9.30031 7.56133 9.30031 7.43102 9.43066C7.30066 9.56102 7.30066 9.77168 7.43102 9.90199L7.86203 10.333L6.86203 11.333H5.33336C5.21535 11.333 5.10637 11.2707 5.04637 11.1693C4.98637 11.068 4.98438 10.9423 5.04137 10.839L8.70805 4.1723C8.76637 4.06598 8.8784 3.99965 9.00004 3.99965H13C13.085 3.99965 13.1667 4.03199 13.2287 4.09031C13.663 4.4993 13.855 4.64199 14.6767 4.66633C14.8567 4.67199 15 4.81934 15 4.99965V9.66633H15Z" fill="black"/>
</svg>
