<svg width="20" height="20" viewBox="0 0 20 20" fill="none" xmlns="http://www.w3.org/2000/svg">
<g clip-path="url(#clip0)">
<path d="M16.2952 14.1155H13.9548C13.4711 14.1152 12.9956 14.2412 12.5748 14.4812C12.2166 14.6858 11.9067 14.9661 11.6666 15.303C11.5067 15.2749 11.3446 15.2608 11.1823 15.261H8.83981C8.67744 15.2608 8.51537 15.2749 8.35545 15.303C8.11541 14.9661 7.80554 14.6857 7.44728 14.4812C7.02644 14.2412 6.55096 14.1152 6.06728 14.1155H3.72691C2.17174 14.119 0.911892 15.3873 0.908447 16.9528V18.5522C0.909596 18.7197 1.04478 18.8548 1.21117 18.8548H6.013V19.6955C6.013 19.8638 6.14854 20.0002 6.31572 20.0002H13.698C13.8652 20.0002 14.0007 19.8638 14.0007 19.6955V18.8548H18.8026C18.9697 18.8548 19.1053 18.7184 19.1053 18.5501V16.9528C19.1018 15.3905 17.847 14.1236 16.2952 14.1155ZM6.04431 17.825V17.8901C6.04431 17.9196 6.04431 17.9469 6.04431 17.9763V18.0982V18.2453H1.51389V16.9528C1.51734 15.7238 2.5061 14.7285 3.72691 14.725H6.06728C6.44626 14.7246 6.81887 14.8231 7.14873 15.0109C7.36988 15.1367 7.56827 15.2995 7.73539 15.4921C6.79334 15.9037 6.14635 16.7963 6.04431 17.825ZM13.389 18.0982V19.3928H6.6268V18.0751C6.6268 18.0513 6.6268 18.0282 6.6268 18.0057C6.6268 17.9693 6.6268 17.9329 6.6268 17.8964V17.8418C6.6268 17.8208 6.6268 17.7998 6.6268 17.7788V17.7115V17.6905V17.6674V17.6211L6.63932 17.5707L6.6602 17.495L6.67481 17.4446C6.97472 16.5296 7.82214 15.9101 8.77927 15.9062L8.83981 15.8725H11.1823C12.2938 15.8766 13.2313 16.7072 13.3765 17.8166C13.3765 17.8628 13.3765 17.9091 13.389 17.9553C13.389 18.0029 13.389 18.0506 13.389 18.0982ZM18.5082 18.2474H13.9986V18.0646C13.9986 18.0415 13.9986 18.0183 13.9986 17.9952C13.9986 17.9714 13.9986 17.9476 13.9986 17.9238C13.9986 17.8901 13.9986 17.8544 13.9986 17.8208V17.7893V17.7535V17.6884V17.6779V17.6527V17.6295V17.6148V17.5875V17.5581V17.5434V17.5245V17.5055V17.4866V17.4404V17.4194V17.392V17.3647L13.984 17.3122V17.2912V17.2723V17.2575V17.2365V17.2092L13.9548 17.1272C13.6828 16.3993 13.1279 15.8142 12.4182 15.5068C12.5438 15.3197 12.6965 15.1525 12.8713 15.0109C13.2011 14.8231 13.5737 14.7246 13.9527 14.725H16.2952C17.5159 14.7285 18.5047 15.7238 18.5082 16.9528V18.2474Z" fill="#ffffff"/>
<path d="M6.40292 9.93931C6.004 9.53537 5.46139 9.30839 4.89556 9.30881C3.71833 9.30776 2.76313 10.2676 2.76209 11.4527C2.76104 12.6378 3.71452 13.5993 4.8918 13.6004C6.06909 13.6014 7.02423 12.6416 7.02528 11.4565C7.02575 10.8877 6.80194 10.342 6.40292 9.93931ZM5.97493 12.5391C5.37903 13.1391 4.41277 13.1393 3.81661 12.5395C3.2205 11.9396 3.2203 10.9669 3.81619 10.3668C4.41209 9.76671 5.37835 9.7665 5.97451 10.3664C6.26074 10.6544 6.4216 11.0451 6.42171 11.4525C6.42228 11.8601 6.26153 12.2511 5.97493 12.5391Z" fill="#ffffff"/>
<path d="M15.1275 9.30673C13.9503 9.30568 12.9951 10.2655 12.994 11.4506C12.9935 12.0194 13.2174 12.5652 13.6164 12.9678C14.0153 13.3718 14.5579 13.5988 15.1237 13.5983C16.301 13.5994 17.2562 12.6396 17.2572 11.4544C17.2582 10.2693 16.3047 9.30778 15.1275 9.30673ZM16.2051 12.5382C15.6092 13.1383 14.643 13.1385 14.0468 12.5386C13.7606 12.2506 13.5997 11.8599 13.5996 11.4525C13.5991 11.0449 13.7598 10.6539 14.0464 10.3659C14.6423 9.76584 15.6086 9.76563 16.2047 10.3655C16.8008 10.9654 16.801 11.9381 16.2051 12.5382Z" fill="#ffffff"/>
<path d="M11.515 11.077C11.1156 10.6763 10.5746 10.4515 10.0108 10.4517C9.44496 10.4513 8.90235 10.6783 8.50344 11.0822C7.67325 11.9208 7.6756 13.2782 8.50866 14.1139C9.34172 14.9496 10.69 14.9473 11.5202 14.1086C12.3504 13.27 12.3481 11.9127 11.515 11.077ZM10.0104 14.1355C9.1675 14.1353 8.48444 13.4472 8.48465 12.5988C8.48486 11.7503 9.16838 11.0627 10.0112 11.0629C10.4159 11.063 10.804 11.2249 11.0902 11.5131C11.3767 11.801 11.5375 12.192 11.5369 12.5996C11.5367 13.4481 10.8532 14.1358 10.0104 14.1355Z" fill="#ffffff"/>
</g>
<defs>
<clipPath id="clip0">
<rect width="19.8675" height="20" fill="white" transform="translate(0.072876)"/>
</clipPath>
</defs>
</svg>
