<svg width="20" height="20" viewBox="0 0 20 20" fill="none" xmlns="http://www.w3.org/2000/svg">
<path d="M10.0006 1.56543C5.3424 1.56543 1.56677 5.34106 1.56677 9.99927C1.56677 13.3556 3.53241 16.245 6.37055 17.6024L6.63453 12.5017C6.63453 12.5017 6.13799 12.3387 6.02931 12.2857C4.97615 11.8218 4.21107 10.4558 4.21107 8.68303C4.21107 6.74854 5.71133 5.08228 7.16179 5.06852C7.16363 5.06852 7.16363 5.06852 7.16484 5.06852C7.16547 5.06852 7.16667 5.06852 7.16725 5.06852C8.61803 5.08223 10.1183 6.74849 10.1183 8.68303C10.1183 10.4558 9.35232 11.8212 8.30131 12.2857C8.29306 12.2893 7.69126 12.5078 7.69126 12.5078L7.98607 18.1792C8.633 18.3384 9.30562 18.4319 10.0017 18.4319C10.9405 18.4319 11.8395 18.272 12.683 17.9894L12.9442 12.9351C12.2558 12.7837 11.6686 12.3454 11.3006 11.7955C10.8446 11.1126 11.6515 5.06794 11.6515 5.06794H12.1764V10.7402H12.6977V5.06857H13.2678V10.7415H13.7866V5.06857H14.378V10.7415H14.8986V5.06857H15.3015C15.3015 5.06857 16.1083 11.1132 15.6518 11.7962C15.2874 12.3406 14.7057 12.7776 14.0259 12.9327C14.0137 12.937 14.0027 12.9412 14.0027 12.9412L14.2297 17.2888C16.7419 15.8282 18.435 13.1146 18.435 9.99932C18.4338 5.34111 14.6581 1.56543 10.0006 1.56543Z" fill="black"/>
<path d="M5.44568 7.82582C5.47588 7.70285 5.51649 7.58596 5.51833 7.58386C5.53146 7.53779 5.50703 7.49077 5.45697 7.46088C5.40938 7.43525 5.35138 7.44838 5.32454 7.48957C5.32454 7.48957 5.26686 7.58144 5.18322 7.71724C5.1152 7.83412 5.01449 8.02088 4.94578 8.25343C4.88626 8.45726 4.81518 8.72827 4.78314 9.03159C4.76943 9.19092 4.76633 9.33465 4.77121 9.48263C4.78314 9.65137 4.80872 9.79572 4.85758 9.96083C5.02326 10.4317 5.15087 10.8877 5.61136 11.3375C5.75693 11.487 5.90649 11.589 6.01449 11.664L6.05263 11.6909C6.07585 11.7062 6.09813 11.7202 6.12008 11.7331C6.21075 11.7806 6.27143 11.7977 6.28246 11.8001C6.32759 11.8123 6.37402 11.7904 6.3932 11.7538C6.41122 11.7153 6.39808 11.6671 6.36058 11.6366C6.36058 11.6366 6.30804 11.5908 6.24065 11.5054C6.19457 11.4535 6.14451 11.3784 6.08625 11.2936C6.04507 11.2338 5.99653 11.166 5.95135 11.1001C5.72704 10.7577 5.5977 10.2798 5.41883 9.79026C5.38374 9.68404 5.35506 9.54641 5.34434 9.42952C5.33005 9.29462 5.32333 9.16466 5.32333 9.0441C5.31813 8.76394 5.33063 8.52345 5.35506 8.32845C5.38311 8.10845 5.40507 7.94334 5.44568 7.82582Z" fill="black"/>
<path d="M10.0006 0C4.487 0 0 4.48607 0 9.99997C0 15.5127 4.487 20 10.0006 20C15.5139 20 20 15.5127 20 9.99997C19.9999 4.48607 15.5139 0 10.0006 0ZM10.0006 19.2542C4.89743 19.2542 0.745531 15.1026 0.745531 9.99997C0.745531 4.89681 4.89743 0.744902 10.0006 0.744902C15.1031 0.744902 19.2554 4.89681 19.2554 9.99997C19.2553 15.1026 15.1031 19.2542 10.0006 19.2542Z" fill="black"/>
</svg>
